# xmcd
#
# Track frame offsets: 
#        150
#        21174
#        46057
#        84987
#        102692
#        115714
#        128114
#        146206
#        172103
#        196034
#        249440
#        263692
#
# Disc length: 3901 seconds
#
# Revision: 1
# Processed by: cddbd v1.5.2PL0 Copyright (c) Steve Scherf et al.
# Submitted via: ExactAudioCopy v0.95b4
#
DISCID=9f0f3b0c
DTITLE=Various Artist - Tatsuo Sunaga no yoru jazz -Jazz Allnighters-
DYEAR=1900
DGENRE=Jazz
TTITLE0=e.s.t. - Spam-Boo-Limbo
TTITLE1=Urb - Half
TTITLE2=Jukka Eskola - Buttercup
TTITLE3=The Bad Plus - Big Eater
TTITLE4=The Peddlers - Ebb Tide
TTITLE5=Ib Glindemann And His Orchestra - Hav-A-Havanna
TTITLE6=The Jazz Defektors - Samba Ingles
TTITLE7=Miles Davis - Milestones
TTITLE8=Ronnie Ross - Brewer's Castle
TTITLE9=Art Blakey - Nica's Dream
TTITLE10=The Millers - Pretty
TTITLE11=e.s.t. - Seven Days Od Falling
EXTD=
EXTT0=
EXTT1=
EXTT2=
EXTT3=
EXTT4=
EXTT5=
EXTT6=
EXTT7=
EXTT8=
EXTT9=
EXTT10=
EXTT11=
PLAYORDER=
